<svg
   width="180"
   height="180"
   viewBox="0 0 180 180"
   version="1.1"
   id="svg1"
   xml:space="preserve"
   xmlns="http://www.w3.org/2000/svg"
   xmlns:svg="http://www.w3.org/2000/svg"
>
    <defs>
        <g id="cog">
            <path 
                style="fill:currentColor;fill-opacity:1;stroke:none;stroke-width:2.91107"
                d="m 97.752501,14.130132 -9.381402,13.321575 -0.875593,3.780985 0.153413,10.126218 -15.231962,2.683646 -3.320429,-9.569021 -2.115099,-3.246528 -13.372747,-9.313164 -6.817124,3.940185 1.375919,16.23265 1.756892,3.456901 6.623829,7.658625 -9.938582,11.848983 -8.693428,-5.196724 -3.712755,-1.125768 -16.226967,1.461225 -2.695014,7.397083 11.490766,11.553325 3.570636,1.518082 10.001112,1.609049 v 15.465082 l -10.001112,1.609049 -3.570636,1.51808 -11.490766,11.55333 2.695014,7.39707 16.226967,1.46124 3.712755,-1.12577 8.693428,-5.19673 9.938582,11.849 -6.623829,7.6586 -1.756892,3.4569 -1.375919,16.23267 6.817124,3.94017 13.372747,-9.31317 2.115099,-3.24651 3.320429,-9.56902 15.231962,2.68363 -0.153413,10.12623 0.875593,3.78099 9.381402,13.32157 7.749599,-1.37024 4.25858,-15.72665 -0.46624,-3.84919 -3.60472,-9.46099 13.3898,-7.73254 6.39641,7.85192 3.09872,2.33113 15.74934,4.17332 5.06027,-6.02683 -6.84557,-14.78849 -2.83716,-2.64385 -8.84125,-4.93518 5.28767,-14.532632 9.94426,1.910392 3.8777,-0.21038 14.74863,-6.925177 v -7.868995 l -14.74863,-6.925174 -3.8777,-0.210383 -9.94426,1.910392 -5.28767,-14.532629 8.84125,-4.935179 2.83716,-2.643849 6.84557,-14.788484 -5.06027,-6.026831 -15.74934,4.173298 -3.09872,2.331133 -6.39641,7.851938 -13.3898,-7.73254 3.60472,-9.460991 0.46624,-3.849211 -4.25858,-15.726624 z M 88.371099,75.44463 A 14.55537,14.55537 0 0 1 102.92647,90 14.55537,14.55537 0 0 1 88.371099,104.55537 14.55537,14.55537 0 0 1 73.815728,90 14.55537,14.55537 0 0 1 88.371099,75.44463 Z"
            />
        </g>
        <g id="pdf">
            <path
                style="fill:#ffffff;fill-opacity:1;fill-rule:nonzero;stroke:currentColor;stroke-width:5.73751;stroke-linecap:round;stroke-linejoin:round;stroke-dasharray:none;stroke-opacity:1"
                d="m 115.96038,9.1011226 31.41471,31.7977544 m 0,11.232914 V 159.42386 c 0,6.35716 -5.11786,11.47502 -11.47502,11.47502 H 44.099928 c -6.35716,0 -11.475018,-5.11786 -11.475018,-11.47502 V 20.576141 c 0,-6.35716 5.117858,-11.4750184 11.475018,-11.4750184 h 71.860452 l -0.14159,20.0812814 c -0.0449,6.357008 5.11832,11.398586 11.47503,11.475018 l 20.08127,0.241455"
            />
            <path
                style="fill:none;stroke:currentColor;stroke-width:4.74634;stroke-linecap:butt;stroke-linejoin:miter;stroke-dasharray:none;stroke-opacity:1"
                d="M 56.949794,109.50753 C 70.723931,123.86069 104.41318,45.431956 83.05466,47.805125 61.696136,50.178294 111.53269,116.62705 123.39853,100.01485 135.26439,83.402664 43.175657,95.15437 56.949794,109.50753 Z"
            />
        </g>
        <g id="slides">
            <path
                style="fill:none;stroke:currentColor;stroke-width:5;stroke-linecap:round;stroke-linejoin:miter;stroke-dasharray:none;stroke-opacity:1"
                d="m 90,21.25 30,137.5"
            />
            <path
                style="fill:none;stroke:currentColor;stroke-width:5;stroke-linecap:round;stroke-linejoin:miter;stroke-dasharray:none;stroke-opacity:1"
                d="M 90,21.25 60,158.75"
            />
            <rect
                style="fill:#ffffff;fill-opacity:1;stroke:currentColor;stroke-width:10.4525;stroke-dasharray:none;stroke-opacity:1;paint-order:stroke markers fill"
                width="119.79137"
                height="82.273766"
                x="30.104315"
                y="36.476234"
                ry="4.7737675"
                rx="4.7737675"
            />
            <rect
                style="fill:currentColor;fill-opacity:1;stroke:currentColor;stroke-width:5.90268;stroke-dasharray:none;stroke-opacity:1;paint-order:stroke markers fill"
                width="140"
                height="5.2262344"
                x="20"
                y="31.25"
                ry="1.6724058"
            />
            <path
                style="fill:none;stroke:currentColor;stroke-width:5;stroke-linecap:butt;stroke-linejoin:miter;stroke-dasharray:none;stroke-opacity:1"
                d="m 90,66.25 h 50"
            />
            <path
                style="fill:none;stroke:currentColor;stroke-width:5;stroke-linecap:butt;stroke-linejoin:miter;stroke-dasharray:none;stroke-opacity:1"
                d="m 90,76.25 h 50"
            />
            <path
                style="fill:none;stroke:currentColor;stroke-width:5;stroke-linecap:butt;stroke-linejoin:miter;stroke-dasharray:none;stroke-opacity:1"
                d="m 90,86.25 h 50"
            />
            <path
                style="fill:none;stroke:currentColor;stroke-width:5;stroke-linecap:butt;stroke-linejoin:miter;stroke-dasharray:none;stroke-opacity:1"
                d="m 90,56.25 h 50"
            />
            <path
                style="fill:currentColor;fill-opacity:1;stroke:currentColor;stroke-width:5;stroke-linecap:round;stroke-dasharray:none;stroke-opacity:1;paint-order:stroke markers fill"
                d="M 80.000002,78.84906 A 20.099062,20.099062 0 0 1 67.592518,97.418172 20.099062,20.099062 0 0 1 45.688757,93.061243 20.099062,20.099062 0 0 1 41.331828,71.157482 20.099062,20.099062 0 0 1 59.90094,58.749998 V 78.84906 Z"
            />
        </g>
    </defs>
</svg>
